<svg width="18" height="18" viewBox="0 0 18 18" fill="none" xmlns="http://www.w3.org/2000/svg">
<path d="M1.38281 14.7402C0.904297 15.2188 0.894531 16.0684 1.39258 16.5664C1.90039 17.0645 2.75 17.0547 3.21875 16.5859L9 10.8047L14.7715 16.5762C15.2598 17.0645 16.0996 17.0645 16.5977 16.5664C17.0957 16.0586 17.0957 15.2285 16.6074 14.7402L10.8359 8.96875L16.6074 3.1875C17.0957 2.69922 17.1055 1.85938 16.5977 1.36133C16.0996 0.863281 15.2598 0.863281 14.7715 1.35156L9 7.12305L3.21875 1.35156C2.75 0.873047 1.89062 0.853516 1.39258 1.36133C0.894531 1.85938 0.904297 2.71875 1.38281 3.1875L7.1543 8.96875L1.38281 14.7402Z" fill="white"/>
</svg>
