<svg width="24" height="24" viewBox="0 0 24 24" fill="none" xmlns="http://www.w3.org/2000/svg">
<path d="M19.2618 16.25H20.0118V15.5H19.2618V16.25ZM15.2618 15.5H14.5118V17H15.2618V15.5ZM4.75 7.75H4V8.5H4.75V7.75ZM8.75 8.5H9.5V7H8.75V8.5ZM20.0118 20.25V16.25H18.5118V20.25H20.0118ZM19.2618 15.5H15.2618V17H19.2618V15.5ZM4 3.75V7.75H5.5V3.75H4ZM4.75 8.5H8.75V7H4.75V8.5ZM12 19.5C7.85786 19.5 4.5 16.1421 4.5 12H3C3 16.9706 7.02944 21 12 21V19.5ZM12 4.5C16.1421 4.5 19.5 7.85786 19.5 12H21C21 7.02944 16.9706 3 12 3V4.5ZM5.43045 8.25054C6.72464 6.01329 9.21759 4.5 12 4.5V3C8.67508 3 5.69079 4.80485 4.13205 7.49946L5.43045 8.25054ZM4.5 12C4.5 11.6819 4.51977 11.3687 4.55806 11.0616L3.06959 10.8759C3.02364 11.2445 3 11.6197 3 12H4.5ZM19.5 12C19.5 12.3181 19.4802 12.6313 19.4419 12.9384L20.9304 13.1241C20.9764 12.7555 21 12.3803 21 12H19.5ZM18.5695 15.7495C17.2754 17.9867 14.7824 19.5 12 19.5V21C15.3249 21 18.3092 19.1951 19.868 16.5005L18.5695 15.7495Z" fill="white"/>
</svg>
